{
  "accessors": [
    {
      "bufferView": 2,
      "componentType": 5126,
      "count": 10776,
      "max": [
        3.98372745513916,
        2.107198476791382,
        14.601802825927734
      ],
      "min": [
        -2.1409969329833984,
        -2.001992702484131,
        -1.0102802515029907
      ],
      "type": "VEC3"
    },
    {
      "bufferView": 2,
      "byteOffset": 129312,
      "componentType": 5126,
      "count": 10776,
      "max": [
        1.0,
        1.0,
        1.0
      ],
      "min": [
        -1.0,
        -1.0,
        -1.0
      ],
      "type": "VEC3"
    },
    {
      "bufferView": 1,
      "componentType": 5126,
      "count": 10776,
      "max": [
        25.217817306518555,
        5.6298508644104
      ],
      "min": [
        -24.32054901123047,
        -5.212400913238525
      ],
      "type": "VEC2"
    },
    {
      "bufferView": 0,
      "componentType": 5125,
      "count": 23781,
      "type": "SCALAR"
    },
    {
      "bufferView": 2,
      "byteOffset": 258624,
      "componentType": 5126,
      "count": 1229,
      "max": [
        3.9531328678131104,
        2.0159871578216553,
        13.376594543457031
      ],
      "min": [
        -1.9470272064208984,
        -1.9857227802276611,
        -1.0102802515029907
      ],
      "type": "VEC3"
    },
    {
      "bufferView": 2,
      "byteOffset": 273372,
      "componentType": 5126,
      "count": 1229,
      "max": [
        1.0,
        1.0,
        1.3287758804381156e-07
      ],
      "min": [
        -1.0,
        -1.0,
        -1.2912988722746377e-07
      ],
      "type": "VEC3"
    },
    {
      "bufferView": 1,
      "byteOffset": 86208,
      "componentType": 5126,
      "count": 1229,
      "max": [
        7.875624656677246,
        2.1366045475006104
      ],
      "min": [
        -6.252767562866211,
        -0.5080153346061707
      ],
      "type": "VEC2"
    },
    {
      "bufferView": 0,
      "byteOffset": 95124,
      "componentType": 5125,
      "count": 2739,
      "type": "SCALAR"
    },
    {
      "bufferView": 2,
      "byteOffset": 288120,
      "componentType": 5126,
      "count": 383,
      "max": [
        1.7892420291900635,
        -0.42979931831359863,
        2.698702573776245
      ],
      "min": [
        0.9999277591705322,
        -0.9999103546142578,
        0.9897377490997314
      ],
      "type": "VEC3"
    },
    {
      "bufferView": 2,
      "byteOffset": 292716,
      "componentType": 5126,
      "count": 383,
      "max": [
        0.9741432070732117,
        3.873682544508483e-06,
        0.22593264281749725
      ],
      "min": [
        -0.9745685458183289,
        -3.873679361277027e-06,
        0.22408989071846008
      ],
      "type": "VEC3"
    },
    {
      "bufferView": 1,
      "byteOffset": 96040,
      "componentType": 5126,
      "count": 383,
      "max": [
        1.5638285875320435,
        1.8673831224441528
      ],
      "min": [
        -0.3695693612098694,
        -0.34412890672683716
      ],
      "type": "VEC2"
    },
    {
      "bufferView": 0,
      "byteOffset": 106080,
      "componentType": 5125,
      "count": 702,
      "type": "SCALAR"
    },
    {
      "bufferView": 2,
      "byteOffset": 297312,
      "componentType": 5126,
      "count": 288,
      "max": [
        3.7435827255249023,
        -1.0697598457336426,
        2.5924935340881348
      ],
      "min": [
        3.321089506149292,
        -1.8546286821365356,
        2.1123650074005127
      ],
      "type": "VEC3"
    },
    {
      "bufferView": 2,
      "byteOffset": 300768,
      "componentType": 5126,
      "count": 288,
      "max": [
        0.5236086249351501,
        0.8503879308700562,
        0.08160366863012314
      ],
      "min": [
        -0.5236086249351501,
        -0.8503879308700562,
        0.05182526260614395
      ],
      "type": "VEC3"
    },
    {
      "bufferView": 1,
      "byteOffset": 99104,
      "componentType": 5126,
      "count": 288,
      "max": [
        21.667428970336914,
        3.270129680633545
      ],
      "min": [
        -22.462770462036133,
        -4.0151543617248535
      ],
      "type": "VEC2"
    },
    {
      "bufferView": 0,
      "byteOffset": 108888,
      "componentType": 5125,
      "count": 432,
      "type": "SCALAR"
    },
    {
      "bufferView": 2,
      "byteOffset": 304224,
      "componentType": 5126,
      "count": 70,
      "max": [
        1.0,
        2.7527871131896973,
        0.0
      ],
      "min": [
        -1.3783682584762573,
        -2.733631134033203,
        0.0
      ],
      "type": "VEC3"
    },
    {
      "bufferView": 2,
      "byteOffset": 305064,
      "componentType": 5126,
      "count": 70,
      "max": [
        0.0,
        0.0,
        1.0
      ],
      "min": [
        0.0,
        0.0,
        1.0
      ],
      "type": "VEC3"
    },
    {
      "bufferView": 1,
      "byteOffset": 101408,
      "componentType": 5126,
      "count": 70,
      "max": [
        4.561093807220459,
        4.561093807220459
      ],
      "min": [
        -3.561093807220459,
        -3.561093807220459
      ],
      "type": "VEC2"
    },
    {
      "bufferView": 0,
      "byteOffset": 110616,
      "componentType": 5125,
      "count": 114,
      "type": "SCALAR"
    },
    {
      "bufferView": 2,
      "byteOffset": 305904,
      "componentType": 5126,
      "count": 67,
      "max": [
        1.0,
        2.7527871131896973,
        0.0
      ],
      "min": [
        -1.3783682584762573,
        -2.733631134033203,
        0.0
      ],
      "type": "VEC3"
    },
    {
      "bufferView": 2,
      "byteOffset": 306708,
      "componentType": 5126,
      "count": 67,
      "max": [
        0.0,
        0.0,
        1.0
      ],
      "min": [
        0.0,
        0.0,
        1.0
      ],
      "type": "VEC3"
    },
    {
      "bufferView": 1,
      "byteOffset": 101968,
      "componentType": 5126,
      "count": 67,
      "max": [
        2.4239726066589355,
        2.4239726066589355
      ],
      "min": [
        -1.423972487449646,
        -1.4239726066589355
      ],
      "type": "VEC2"
    },
    {
      "bufferView": 0,
      "byteOffset": 111072,
      "componentType": 5125,
      "count": 225,
      "type": "SCALAR"
    }
  ],
  "asset": {
    "extras": {
      "author": "LeoPeo (https://sketchfab.com/leonpeo2006)",
      "license": "CC-BY-4.0 (http://creativecommons.org/licenses/by/4.0/)",
      "source": "https://sketchfab.com/3d-models/peos-wonderland-1978-brutalism-a61f158347ca4f39b2d76ff58e72b0c4",
      "title": "Peos wonderland 1978 brutalism"
    },
    "generator": "Sketchfab-17.8.0",
    "version": "2.0"
  },
  "bufferViews": [
    {
      "buffer": 0,
      "byteLength": 111972,
      "name": "floatBufferViews",
      "target": 34963
    },
    {
      "buffer": 0,
      "byteLength": 102504,
      "byteOffset": 111972,
      "byteStride": 8,
      "name": "floatBufferViews",
      "target": 34962
    },
    {
      "buffer": 0,
      "byteLength": 307512,
      "byteOffset": 214476,
      "byteStride": 12,
      "name": "floatBufferViews",
      "target": 34962
    }
  ],
  "buffers": [
    {
      "byteLength": 521988,
      "uri": "scene.bin"
    }
  ],
  "images": [
    {
      "uri": "textures/Concrete_baseColor.jpeg"
    },
    {
      "uri": "textures/Glass_baseColor.jpeg"
    },
    {
      "uri": "textures/Sheet_metal_baseColor.png"
    },
    {
      "uri": "textures/Grass_baseColor.jpeg"
    }
  ],
  "materials": [
    {
      "doubleSided": true,
      "name": "Concrete",
      "pbrMetallicRoughness": {
        "baseColorTexture": {
          "index": 0
        },
        "metallicFactor": 0.0
      }
    },
    {
      "doubleSided": true,
      "name": "Glass",
      "pbrMetallicRoughness": {
        "baseColorTexture": {
          "index": 1
        },
        "roughnessFactor": 0.0
      }
    },
    {
      "doubleSided": true,
      "name": "Sheet_metal",
      "pbrMetallicRoughness": {
        "baseColorTexture": {
          "index": 2
        },
        "metallicFactor": 0.2,
        "roughnessFactor": 0.5
      }
    },
    {
      "doubleSided": true,
      "name": "Plastic",
      "pbrMetallicRoughness": {
        "baseColorFactor": [
          0.8,
          0.8,
          0.8,
          1.0
        ],
        "metallicFactor": 0.4,
        "roughnessFactor": 0.0
      }
    },
    {
      "doubleSided": true,
      "name": "Grass",
      "pbrMetallicRoughness": {
        "baseColorTexture": {
          "index": 3
        },
        "metallicFactor": 0.0
      }
    }
  ],
  "meshes": [
    {
      "name": "downtown building_Concrete_0",
      "primitives": [
        {
          "attributes": {
            "NORMAL": 1,
            "POSITION": 0,
            "TEXCOORD_0": 2
          },
          "indices": 3,
          "material": 0,
          "mode": 4
        }
      ]
    },
    {
      "name": "downtown building_Glass_0",
      "primitives": [
        {
          "attributes": {
            "NORMAL": 5,
            "POSITION": 4,
            "TEXCOORD_0": 6
          },
          "indices": 7,
          "material": 1,
          "mode": 4
        }
      ]
    },
    {
      "name": "downtown building_Sheet metal_0",
      "primitives": [
        {
          "attributes": {
            "NORMAL": 9,
            "POSITION": 8,
            "TEXCOORD_0": 10
          },
          "indices": 11,
          "material": 2,
          "mode": 4
        }
      ]
    },
    {
      "name": "downtown building_Plastic_0",
      "primitives": [
        {
          "attributes": {
            "NORMAL": 13,
            "POSITION": 12,
            "TEXCOORD_0": 14
          },
          "indices": 15,
          "material": 3,
          "mode": 4
        }
      ]
    },
    {
      "name": "Plane_Grass_0",
      "primitives": [
        {
          "attributes": {
            "NORMAL": 17,
            "POSITION": 16,
            "TEXCOORD_0": 18
          },
          "indices": 19,
          "material": 4,
          "mode": 4
        }
      ]
    },
    {
      "name": "Plane_Concrete_0",
      "primitives": [
        {
          "attributes": {
            "NORMAL": 21,
            "POSITION": 20,
            "TEXCOORD_0": 22
          },
          "indices": 23,
          "material": 0,
          "mode": 4
        }
      ]
    }
  ],
  "nodes": [
    {
      "children": [
        1
      ],
      "matrix": [
        1.0,
        0.0,
        0.0,
        0.0,
        0.0,
        2.220446049250313e-16,
        -1.0,
        0.0,
        0.0,
        1.0,
        2.220446049250313e-16,
        0.0,
        0.0,
        0.0,
        0.0,
        1.0
      ],
      "name": "Sketchfab_model"
    },
    {
      "children": [
        2
      ],
      "matrix": [
        0.009999999776482582,
        0.0,
        0.0,
        0.0,
        0.0,
        0.0,
        0.009999999776482582,
        0.0,
        0.0,
        -0.009999999776482582,
        0.0,
        0.0,
        0.0,
        0.0,
        0.0,
        1.0
      ],
      "name": "42bb7a2c9a214f5b97739464fa605a19.fbx"
    },
    {
      "children": [
        3,
        8,
        11
      ],
      "name": "RootNode"
    },
    {
      "children": [
        4,
        5,
        6,
        7
      ],
      "matrix": [
        1341.247802734375,
        0.0,
        0.0,
        0.0,
        0.0,
        -0.0003452890602727069,
        -2119.369140624972,
        0.0,
        0.0,
        99.99999999999868,
        -1.629206793918314e-05,
        0.0,
        0.0,
        101.0262222290039,
        0.0,
        1.0
      ],
      "name": "downtown building"
    },
    {
      "mesh": 0,
      "name": "downtown building_Concrete_0"
    },
    {
      "mesh": 1,
      "name": "downtown building_Glass_0"
    },
    {
      "mesh": 2,
      "name": "downtown building_Sheet metal_0"
    },
    {
      "mesh": 3,
      "name": "downtown building_Plastic_0"
    },
    {
      "children": [
        9,
        10
      ],
      "matrix": [
        4576.16455078125,
        0.0,
        0.0,
        0.0,
        0.0,
        -0.00028594150367747853,
        -1755.0964355468518,
        0.0,
        0.0,
        1755.0964355468518,
        -0.00028594150367747853,
        0.0,
        1832.3375244140625,
        0.0,
        67.24176025390625,
        1.0
      ],
      "name": "Plane"
    },
    {
      "mesh": 4,
      "name": "Plane_Grass_0"
    },
    {
      "mesh": 5,
      "name": "Plane_Concrete_0"
    },
    {
      "children": [
        12
      ],
      "matrix": [
        80.9681575076933,
        -11.154192617788084,
        -57.617197578975066,
        0.0,
        9.090487718109902,
        99.37598038047395,
        -6.463674059349954,
        0.0,
        57.97862119320932,
        -0.004166475959581362,
        81.47686461305945,
        0.0,
        -6375.3994140625,
        1449.9615478515625,
        5638.578125,
        1.0
      ],
      "name": "Camera"
    },
    {
      "name": "Object_12"
    }
  ],
  "samplers": [
    {
      "magFilter": 9729,
      "minFilter": 9987,
      "wrapS": 10497,
      "wrapT": 10497
    }
  ],
  "scene": 0,
  "scenes": [
    {
      "name": "Sketchfab_Scene",
      "nodes": [
        0
      ]
    }
  ],
  "textures": [
    {
      "sampler": 0,
      "source": 0
    },
    {
      "sampler": 0,
      "source": 1
    },
    {
      "sampler": 0,
      "source": 2
    },
    {
      "sampler": 0,
      "source": 3
    }
  ]
}
